<svg width="584" height="122" viewBox="0 0 584 122" fill="none" xmlns="http://www.w3.org/2000/svg">
<path d="M65.94 121.08L71.444 106.616L0.147995 70.264V59.256L54.932 31.352V41.592L15.892 61.048C14.2707 61.9013 12.7773 62.6693 11.412 63.352C9.96133 63.9493 8.89466 64.376 8.21199 64.632C8.89466 64.888 9.96133 65.3573 11.412 66.04C12.7773 66.6373 14.2707 67.3627 15.892 68.216L74.644 98.168L111.508 0.759995H122.26L114.452 21.624L188.052 59.256V70.264L133.268 98.168V88.184L172.308 68.728C174.015 67.8747 175.636 67.1067 177.172 66.424C178.708 65.7413 179.903 65.272 180.756 65.016C179.903 64.6747 178.665 64.2053 177.044 63.608C175.508 62.9253 173.929 62.1573 172.308 61.304L111.124 30.072L76.692 121.08H65.94ZM216.29 107L240.994 13.56H254.434L279.01 107H268.77L262.242 81.656H233.058L226.658 107H216.29ZM235.106 72.952H260.066L252.13 41.72C250.85 36.5147 249.826 32.1627 249.058 28.664C248.29 25.1653 247.821 22.8613 247.65 21.752C247.479 22.8613 247.01 25.1653 246.242 28.664C245.474 32.1627 244.45 36.5147 243.17 41.72L235.106 72.952ZM327.856 108.28C322.651 108.28 318.341 107.043 314.928 104.568C311.515 102.008 309.381 98.552 308.528 94.2V107H298.416V13.56H308.528V33.656L308.4 49.4C309.168 45.048 311.301 41.6347 314.8 39.16C318.299 36.6 322.651 35.32 327.856 35.32C334.939 35.32 340.571 37.6667 344.752 42.36C348.933 47.0533 351.024 53.4107 351.024 61.432V82.296C351.024 90.3173 348.891 96.6747 344.624 101.368C340.443 105.976 334.853 108.28 327.856 108.28ZM324.656 99.448C329.776 99.448 333.744 98.0827 336.56 95.352C339.461 92.536 340.912 88.184 340.912 82.296V61.432C340.912 55.544 339.461 51.192 336.56 48.376C333.744 45.56 329.776 44.152 324.656 44.152C319.621 44.152 315.653 45.7307 312.752 48.888C309.936 51.96 308.528 56.2693 308.528 61.816V81.784C308.528 87.3307 309.979 91.6827 312.88 94.84C315.781 97.912 319.707 99.448 324.656 99.448ZM375.166 107V36.6H385.278V49.656C386.046 45.1333 388.051 41.6347 391.294 39.16C394.622 36.6 398.974 35.32 404.35 35.32C411.347 35.32 416.937 37.5387 421.118 41.976C425.299 46.328 427.39 52.2587 427.39 59.768V107H417.278V61.432C417.278 55.8 415.87 51.4907 413.054 48.504C410.238 45.432 406.398 43.896 401.534 43.896C396.499 43.896 392.531 45.4747 389.63 48.632C386.729 51.7893 385.278 56.184 385.278 61.816V107H375.166ZM477.9 108.28C469.708 108.28 463.18 105.848 458.316 100.984C453.452 96.0347 451.02 89.2933 451.02 80.76V62.84C451.02 54.3067 453.452 47.608 458.316 42.744C463.18 37.7947 469.708 35.32 477.9 35.32C486.092 35.32 492.62 37.752 497.484 42.616C502.348 47.3947 504.78 53.7947 504.78 61.816V74.36H460.876V81.784C460.876 87.16 462.412 91.4693 465.484 94.712C468.556 97.8693 472.695 99.448 477.9 99.448C482.337 99.448 486.007 98.552 488.908 96.76C491.809 94.8827 493.559 92.3653 494.156 89.208H504.268C503.5 95.096 500.727 99.7467 495.948 103.16C491.169 106.573 485.153 108.28 477.9 108.28ZM460.876 66.296H494.924V61.816C494.924 56.0987 493.431 51.6613 490.444 48.504C487.457 45.3467 483.276 43.768 477.9 43.768C472.524 43.768 468.343 45.3467 465.356 48.504C462.369 51.6613 460.876 56.0987 460.876 61.816V66.296ZM531.226 107V36.6H541.466V49.656C542.234 45.2187 544.239 41.72 547.482 39.16C550.81 36.6 555.119 35.32 560.41 35.32C567.834 35.32 573.509 37.5387 577.434 41.976C581.359 46.328 583.322 52.5147 583.322 60.536V66.68H573.21V60.536C573.21 49.6133 567.962 44.152 557.466 44.152C552.261 44.152 548.293 45.688 545.562 48.76C542.831 51.832 541.466 56.184 541.466 61.816V107H531.226Z" fill="#B88A00"/>
</svg>
